<svg width="40" height="24" viewBox="0 0 40 24" fill="none" xmlns="http://www.w3.org/2000/svg">
<rect width="40" height="24" rx="4" fill="#DEEDE5"/>
<path d="M13.035 10.785L10 7.75L6.965 10.785" stroke="#427A5B" stroke-miterlimit="10" stroke-linecap="round" stroke-linejoin="round"/>
<path d="M10 16.25V7.835" stroke="#427A5B" stroke-miterlimit="10" stroke-linecap="round" stroke-linejoin="round"/>
<path d="M22.644 17V15.326H18.6V14.486L21.492 8.36H22.482L19.59 14.486H22.644V11.966H23.532V14.486H24.474V15.326H23.532V17H22.644ZM26.7581 17L26.1581 16.4L34.2161 8.36L34.8161 8.954L26.7581 17ZM33.0161 17.18C32.6201 17.18 32.2581 17.084 31.9301 16.892C31.6061 16.696 31.3461 16.436 31.1501 16.112C30.9541 15.784 30.8561 15.42 30.8561 15.02C30.8561 14.628 30.9561 14.268 31.1561 13.94C31.3561 13.612 31.6201 13.35 31.9481 13.154C32.2761 12.958 32.6321 12.86 33.0161 12.86C33.4121 12.86 33.7741 12.958 34.1021 13.154C34.4301 13.346 34.6901 13.606 34.8821 13.934C35.0781 14.258 35.1761 14.62 35.1761 15.02C35.1761 15.42 35.0781 15.784 34.8821 16.112C34.6901 16.436 34.4301 16.696 34.1021 16.892C33.7741 17.084 33.4121 17.18 33.0161 17.18ZM33.0161 16.382C33.2601 16.382 33.4861 16.32 33.6941 16.196C33.9021 16.072 34.0681 15.908 34.1921 15.704C34.3161 15.496 34.3781 15.268 34.3781 15.02C34.3781 14.772 34.3161 14.546 34.1921 14.342C34.0681 14.134 33.9021 13.968 33.6941 13.844C33.4861 13.72 33.2601 13.658 33.0161 13.658C32.7681 13.658 32.5401 13.72 32.3321 13.844C32.1281 13.968 31.9621 14.134 31.8341 14.342C31.7101 14.546 31.6481 14.772 31.6481 15.02C31.6481 15.268 31.7101 15.496 31.8341 15.704C31.9621 15.908 32.1281 16.072 32.3321 16.196C32.5401 16.32 32.7681 16.382 33.0161 16.382ZM27.9581 12.5C27.5621 12.5 27.2001 12.404 26.8721 12.212C26.5441 12.016 26.2821 11.756 26.0861 11.432C25.8941 11.104 25.7981 10.74 25.7981 10.34C25.7981 9.948 25.8981 9.588 26.0981 9.26C26.2981 8.932 26.5621 8.67 26.8901 8.474C27.2181 8.278 27.5741 8.18 27.9581 8.18C28.3541 8.18 28.7141 8.278 29.0381 8.474C29.3661 8.666 29.6281 8.926 29.8241 9.254C30.0201 9.578 30.1181 9.94 30.1181 10.34C30.1181 10.74 30.0201 11.104 29.8241 11.432C29.6281 11.756 29.3661 12.016 29.0381 12.212C28.7141 12.404 28.3541 12.5 27.9581 12.5ZM27.9581 11.702C28.2061 11.702 28.4321 11.64 28.6361 11.516C28.8441 11.392 29.0101 11.228 29.1341 11.024C29.2581 10.816 29.3201 10.588 29.3201 10.34C29.3201 10.092 29.2581 9.866 29.1341 9.662C29.0101 9.454 28.8441 9.288 28.6361 9.164C28.4321 9.04 28.2061 8.978 27.9581 8.978C27.7101 8.978 27.4821 9.04 27.2741 9.164C27.0701 9.288 26.9061 9.454 26.7821 9.662C26.6581 9.866 26.5961 10.092 26.5961 10.34C26.5961 10.588 26.6581 10.816 26.7821 11.024C26.9061 11.228 27.0701 11.392 27.2741 11.516C27.4821 11.64 27.7101 11.702 27.9581 11.702Z" fill="#427A5B"/>
</svg>
