<svg width="40" height="24" viewBox="0 0 40 24" fill="none" xmlns="http://www.w3.org/2000/svg">
<rect width="40" height="24" rx="4" fill="#EDDEDE"/>
<path d="M6.965 13.215L10 16.25L13.035 13.215" stroke="#A65959" stroke-miterlimit="10" stroke-linecap="round" stroke-linejoin="round"/>
<path d="M10 7.74999L10 16.165" stroke="#A65959" stroke-miterlimit="10" stroke-linecap="round" stroke-linejoin="round"/>
<path d="M21.474 17.18C20.934 17.18 20.456 17.072 20.04 16.856C19.628 16.64 19.304 16.338 19.068 15.95C18.836 15.558 18.72 15.1 18.72 14.576C18.72 14.04 18.85 13.564 19.11 13.148C19.37 12.728 19.766 12.41 20.298 12.194L20.286 12.542C19.842 12.378 19.504 12.11 19.272 11.738C19.04 11.366 18.924 10.954 18.924 10.502C18.924 10.022 19.034 9.61 19.254 9.266C19.474 8.918 19.774 8.65 20.154 8.462C20.538 8.274 20.978 8.18 21.474 8.18C21.97 8.18 22.41 8.274 22.794 8.462C23.178 8.65 23.48 8.918 23.7 9.266C23.92 9.61 24.03 10.022 24.03 10.502C24.03 10.954 23.918 11.364 23.694 11.732C23.474 12.1 23.136 12.37 22.68 12.542L22.65 12.194C23.182 12.406 23.58 12.722 23.844 13.142C24.112 13.562 24.246 14.04 24.246 14.576C24.246 15.1 24.128 15.558 23.892 15.95C23.656 16.338 23.33 16.64 22.914 16.856C22.498 17.072 22.018 17.18 21.474 17.18ZM21.474 16.334C22.018 16.334 22.46 16.184 22.8 15.884C23.14 15.58 23.31 15.144 23.31 14.576C23.31 14 23.142 13.564 22.806 13.268C22.47 12.968 22.026 12.818 21.474 12.818C20.922 12.818 20.48 12.968 20.148 13.268C19.816 13.564 19.65 14 19.65 14.576C19.65 15.144 19.818 15.58 20.154 15.884C20.49 16.184 20.93 16.334 21.474 16.334ZM21.474 11.966C21.954 11.966 22.344 11.844 22.644 11.6C22.944 11.352 23.094 10.986 23.094 10.502C23.094 10.018 22.944 9.656 22.644 9.416C22.344 9.172 21.954 9.05 21.474 9.05C20.994 9.05 20.604 9.172 20.304 9.416C20.008 9.656 19.86 10.018 19.86 10.502C19.86 10.986 20.008 11.352 20.304 11.6C20.604 11.844 20.994 11.966 21.474 11.966ZM26.6409 17L26.0409 16.4L34.0989 8.36L34.6989 8.954L26.6409 17ZM32.8989 17.18C32.5029 17.18 32.1409 17.084 31.8129 16.892C31.4889 16.696 31.2289 16.436 31.0329 16.112C30.8369 15.784 30.7389 15.42 30.7389 15.02C30.7389 14.628 30.8389 14.268 31.0389 13.94C31.2389 13.612 31.5029 13.35 31.8309 13.154C32.1589 12.958 32.5149 12.86 32.8989 12.86C33.2949 12.86 33.6569 12.958 33.9849 13.154C34.3129 13.346 34.5729 13.606 34.7649 13.934C34.9609 14.258 35.0589 14.62 35.0589 15.02C35.0589 15.42 34.9609 15.784 34.7649 16.112C34.5729 16.436 34.3129 16.696 33.9849 16.892C33.6569 17.084 33.2949 17.18 32.8989 17.18ZM32.8989 16.382C33.1429 16.382 33.3689 16.32 33.5769 16.196C33.7849 16.072 33.9509 15.908 34.0749 15.704C34.1989 15.496 34.2609 15.268 34.2609 15.02C34.2609 14.772 34.1989 14.546 34.0749 14.342C33.9509 14.134 33.7849 13.968 33.5769 13.844C33.3689 13.72 33.1429 13.658 32.8989 13.658C32.6509 13.658 32.4229 13.72 32.2149 13.844C32.0109 13.968 31.8449 14.134 31.7169 14.342C31.5929 14.546 31.5309 14.772 31.5309 15.02C31.5309 15.268 31.5929 15.496 31.7169 15.704C31.8449 15.908 32.0109 16.072 32.2149 16.196C32.4229 16.32 32.6509 16.382 32.8989 16.382ZM27.8409 12.5C27.4449 12.5 27.0829 12.404 26.7549 12.212C26.4269 12.016 26.1649 11.756 25.9689 11.432C25.7769 11.104 25.6809 10.74 25.6809 10.34C25.6809 9.948 25.7809 9.588 25.9809 9.26C26.1809 8.932 26.4449 8.67 26.7729 8.474C27.1009 8.278 27.4569 8.18 27.8409 8.18C28.2369 8.18 28.5969 8.278 28.9209 8.474C29.2489 8.666 29.5109 8.926 29.7069 9.254C29.9029 9.578 30.0009 9.94 30.0009 10.34C30.0009 10.74 29.9029 11.104 29.7069 11.432C29.5109 11.756 29.2489 12.016 28.9209 12.212C28.5969 12.404 28.2369 12.5 27.8409 12.5ZM27.8409 11.702C28.0889 11.702 28.3149 11.64 28.5189 11.516C28.7269 11.392 28.8929 11.228 29.0169 11.024C29.1409 10.816 29.2029 10.588 29.2029 10.34C29.2029 10.092 29.1409 9.866 29.0169 9.662C28.8929 9.454 28.7269 9.288 28.5189 9.164C28.3149 9.04 28.0889 8.978 27.8409 8.978C27.5929 8.978 27.3649 9.04 27.1569 9.164C26.9529 9.288 26.7889 9.454 26.6649 9.662C26.5409 9.866 26.4789 10.092 26.4789 10.34C26.4789 10.588 26.5409 10.816 26.6649 11.024C26.7889 11.228 26.9529 11.392 27.1569 11.516C27.3649 11.64 27.5929 11.702 27.8409 11.702Z" fill="#A65959"/>
</svg>
