<svg width="45" height="24" viewBox="0 0 45 24" fill="none" xmlns="http://www.w3.org/2000/svg">
<rect width="45" height="24" rx="4" fill="#DEEDE5"/>
<path d="M13.035 10.785L10 7.75L6.965 10.785" stroke="#427A5B" stroke-miterlimit="10" stroke-linecap="round" stroke-linejoin="round"/>
<path d="M10 16.25V7.83501" stroke="#427A5B" stroke-miterlimit="10" stroke-linecap="round" stroke-linejoin="round"/>
<path d="M20.346 17V9.344L18.72 10.322V9.332L20.346 8.36H21.24V17H20.346ZM26.3598 8.186C26.9038 8.186 27.3958 8.318 27.8358 8.582C28.2798 8.842 28.6318 9.198 28.8918 9.65C29.1518 10.098 29.2818 10.602 29.2818 11.162V14.162C29.2818 14.738 29.1518 15.254 28.8918 15.71C28.6318 16.166 28.2758 16.526 27.8238 16.79C27.3758 17.05 26.8658 17.18 26.2938 17.18C25.8018 17.18 25.3458 17.072 24.9258 16.856C24.5098 16.636 24.1658 16.334 23.8938 15.95L24.5658 15.392C24.7498 15.676 24.9938 15.904 25.2978 16.076C25.6058 16.248 25.9378 16.334 26.2938 16.334C26.7018 16.334 27.0618 16.238 27.3738 16.046C27.6898 15.85 27.9378 15.594 28.1178 15.278C28.3018 14.958 28.3938 14.612 28.3938 14.24V12.356L28.6098 12.608C28.3618 13.004 28.0318 13.324 27.6198 13.568C27.2118 13.812 26.7638 13.934 26.2758 13.934C25.7438 13.934 25.2618 13.806 24.8298 13.55C24.4018 13.294 24.0618 12.95 23.8098 12.518C23.5618 12.086 23.4378 11.604 23.4378 11.072C23.4378 10.54 23.5698 10.056 23.8338 9.62C24.0978 9.18 24.4518 8.832 24.8958 8.576C25.3398 8.316 25.8278 8.186 26.3598 8.186ZM26.3598 9.038C25.9838 9.038 25.6418 9.13 25.3338 9.314C25.0258 9.494 24.7798 9.738 24.5958 10.046C24.4158 10.354 24.3258 10.696 24.3258 11.072C24.3258 11.448 24.4158 11.79 24.5958 12.098C24.7758 12.406 25.0198 12.652 25.3278 12.836C25.6358 13.016 25.9778 13.106 26.3538 13.106C26.7298 13.106 27.0718 13.016 27.3798 12.836C27.6918 12.652 27.9378 12.406 28.1178 12.098C28.3018 11.79 28.3938 11.448 28.3938 11.072C28.3938 10.7 28.3018 10.36 28.1178 10.052C27.9378 9.744 27.6938 9.498 27.3858 9.314C27.0778 9.13 26.7358 9.038 26.3598 9.038ZM31.7972 17L31.1972 16.4L39.2552 8.36L39.8552 8.954L31.7972 17ZM38.0552 17.18C37.6592 17.18 37.2972 17.084 36.9692 16.892C36.6452 16.696 36.3852 16.436 36.1892 16.112C35.9932 15.784 35.8952 15.42 35.8952 15.02C35.8952 14.628 35.9952 14.268 36.1952 13.94C36.3952 13.612 36.6592 13.35 36.9872 13.154C37.3152 12.958 37.6712 12.86 38.0552 12.86C38.4512 12.86 38.8132 12.958 39.1412 13.154C39.4692 13.346 39.7292 13.606 39.9212 13.934C40.1172 14.258 40.2152 14.62 40.2152 15.02C40.2152 15.42 40.1172 15.784 39.9212 16.112C39.7292 16.436 39.4692 16.696 39.1412 16.892C38.8132 17.084 38.4512 17.18 38.0552 17.18ZM38.0552 16.382C38.2992 16.382 38.5252 16.32 38.7332 16.196C38.9412 16.072 39.1072 15.908 39.2312 15.704C39.3552 15.496 39.4172 15.268 39.4172 15.02C39.4172 14.772 39.3552 14.546 39.2312 14.342C39.1072 14.134 38.9412 13.968 38.7332 13.844C38.5252 13.72 38.2992 13.658 38.0552 13.658C37.8072 13.658 37.5792 13.72 37.3712 13.844C37.1672 13.968 37.0012 14.134 36.8732 14.342C36.7492 14.546 36.6872 14.772 36.6872 15.02C36.6872 15.268 36.7492 15.496 36.8732 15.704C37.0012 15.908 37.1672 16.072 37.3712 16.196C37.5792 16.32 37.8072 16.382 38.0552 16.382ZM32.9972 12.5C32.6012 12.5 32.2392 12.404 31.9112 12.212C31.5832 12.016 31.3212 11.756 31.1252 11.432C30.9332 11.104 30.8372 10.74 30.8372 10.34C30.8372 9.948 30.9372 9.588 31.1372 9.26C31.3372 8.932 31.6012 8.67 31.9292 8.474C32.2572 8.278 32.6132 8.18 32.9972 8.18C33.3932 8.18 33.7532 8.278 34.0772 8.474C34.4052 8.666 34.6672 8.926 34.8632 9.254C35.0592 9.578 35.1572 9.94 35.1572 10.34C35.1572 10.74 35.0592 11.104 34.8632 11.432C34.6672 11.756 34.4052 12.016 34.0772 12.212C33.7532 12.404 33.3932 12.5 32.9972 12.5ZM32.9972 11.702C33.2452 11.702 33.4712 11.64 33.6752 11.516C33.8832 11.392 34.0492 11.228 34.1732 11.024C34.2972 10.816 34.3592 10.588 34.3592 10.34C34.3592 10.092 34.2972 9.866 34.1732 9.662C34.0492 9.454 33.8832 9.288 33.6752 9.164C33.4712 9.04 33.2452 8.978 32.9972 8.978C32.7492 8.978 32.5212 9.04 32.3132 9.164C32.1092 9.288 31.9452 9.454 31.8212 9.662C31.6972 9.866 31.6352 10.092 31.6352 10.34C31.6352 10.588 31.6972 10.816 31.8212 11.024C31.9452 11.228 32.1092 11.392 32.3132 11.516C32.5212 11.64 32.7492 11.702 32.9972 11.702Z" fill="#427A5B"/>
</svg>
