<svg width="39" height="24" viewBox="0 0 39 24" fill="none" xmlns="http://www.w3.org/2000/svg">
<rect width="39" height="24" rx="4" fill="#DEEDE5"/>
<path d="M13.035 10.785L10 7.75L6.965 10.785" stroke="#427A5B" stroke-miterlimit="10" stroke-linecap="round" stroke-linejoin="round"/>
<path d="M10 16.25V7.83499" stroke="#427A5B" stroke-miterlimit="10" stroke-linecap="round" stroke-linejoin="round"/>
<path d="M19.302 17L22.482 9.218H18.48V8.36H23.424V9.218L20.25 17H19.302ZM25.7034 17L25.1034 16.4L33.1614 8.36L33.7614 8.954L25.7034 17ZM31.9614 17.18C31.5654 17.18 31.2034 17.084 30.8754 16.892C30.5514 16.696 30.2914 16.436 30.0954 16.112C29.8994 15.784 29.8014 15.42 29.8014 15.02C29.8014 14.628 29.9014 14.268 30.1014 13.94C30.3014 13.612 30.5654 13.35 30.8934 13.154C31.2214 12.958 31.5774 12.86 31.9614 12.86C32.3574 12.86 32.7194 12.958 33.0474 13.154C33.3754 13.346 33.6354 13.606 33.8274 13.934C34.0234 14.258 34.1214 14.62 34.1214 15.02C34.1214 15.42 34.0234 15.784 33.8274 16.112C33.6354 16.436 33.3754 16.696 33.0474 16.892C32.7194 17.084 32.3574 17.18 31.9614 17.18ZM31.9614 16.382C32.2054 16.382 32.4314 16.32 32.6394 16.196C32.8474 16.072 33.0134 15.908 33.1374 15.704C33.2614 15.496 33.3234 15.268 33.3234 15.02C33.3234 14.772 33.2614 14.546 33.1374 14.342C33.0134 14.134 32.8474 13.968 32.6394 13.844C32.4314 13.72 32.2054 13.658 31.9614 13.658C31.7134 13.658 31.4854 13.72 31.2774 13.844C31.0734 13.968 30.9074 14.134 30.7794 14.342C30.6554 14.546 30.5934 14.772 30.5934 15.02C30.5934 15.268 30.6554 15.496 30.7794 15.704C30.9074 15.908 31.0734 16.072 31.2774 16.196C31.4854 16.32 31.7134 16.382 31.9614 16.382ZM26.9034 12.5C26.5074 12.5 26.1454 12.404 25.8174 12.212C25.4894 12.016 25.2274 11.756 25.0314 11.432C24.8394 11.104 24.7434 10.74 24.7434 10.34C24.7434 9.948 24.8434 9.588 25.0434 9.26C25.2434 8.932 25.5074 8.67 25.8354 8.474C26.1634 8.278 26.5194 8.18 26.9034 8.18C27.2994 8.18 27.6594 8.278 27.9834 8.474C28.3114 8.666 28.5734 8.926 28.7694 9.254C28.9654 9.578 29.0634 9.94 29.0634 10.34C29.0634 10.74 28.9654 11.104 28.7694 11.432C28.5734 11.756 28.3114 12.016 27.9834 12.212C27.6594 12.404 27.2994 12.5 26.9034 12.5ZM26.9034 11.702C27.1514 11.702 27.3774 11.64 27.5814 11.516C27.7894 11.392 27.9554 11.228 28.0794 11.024C28.2034 10.816 28.2654 10.588 28.2654 10.34C28.2654 10.092 28.2034 9.866 28.0794 9.662C27.9554 9.454 27.7894 9.288 27.5814 9.164C27.3774 9.04 27.1514 8.978 26.9034 8.978C26.6554 8.978 26.4274 9.04 26.2194 9.164C26.0154 9.288 25.8514 9.454 25.7274 9.662C25.6034 9.866 25.5414 10.092 25.5414 10.34C25.5414 10.588 25.6034 10.816 25.7274 11.024C25.8514 11.228 26.0154 11.392 26.2194 11.516C26.4274 11.64 26.6554 11.702 26.9034 11.702Z" fill="#427A5B"/>
</svg>
