<svg width="99" height="32" viewBox="0 0 99 32" fill="none" xmlns="http://www.w3.org/2000/svg">
<rect width="99" height="32" rx="4" fill="#B4CD93"/>
<path d="M10.868 21L8.06 12.36H9.362L11.756 19.734L14.18 12.36H15.482L12.674 21H10.868ZM16.2725 13.458V12.24H17.5265V13.458H16.2725ZM16.2725 21V14.52H17.5265V21H16.2725ZM22.2023 21.18C21.5583 21.18 20.9923 21.04 20.5043 20.76C20.0203 20.476 19.6423 20.082 19.3703 19.578C19.1023 19.07 18.9683 18.482 18.9683 17.814C18.9683 17.106 19.1003 16.492 19.3643 15.972C19.6323 15.452 20.0043 15.05 20.4803 14.766C20.9563 14.482 21.5103 14.34 22.1423 14.34C22.8023 14.34 23.3643 14.494 23.8283 14.802C24.2923 15.106 24.6383 15.54 24.8663 16.104C25.0983 16.668 25.1903 17.338 25.1423 18.114H23.8883V17.658C23.8803 16.906 23.7363 16.35 23.4563 15.99C23.1803 15.63 22.7583 15.45 22.1903 15.45C21.5623 15.45 21.0903 15.648 20.7743 16.044C20.4583 16.44 20.3003 17.012 20.3003 17.76C20.3003 18.472 20.4583 19.024 20.7743 19.416C21.0903 19.804 21.5463 19.998 22.1423 19.998C22.5343 19.998 22.8723 19.91 23.1563 19.734C23.4443 19.554 23.6683 19.298 23.8283 18.966L25.0583 19.356C24.8063 19.936 24.4243 20.386 23.9123 20.706C23.4003 21.022 22.8303 21.18 22.2023 21.18ZM19.8923 18.114V17.136H24.5183V18.114H19.8923ZM27.6341 21L25.6541 14.514L26.8961 14.52L28.2521 18.966L29.6201 14.52H30.7001L32.0681 18.966L33.4241 14.52H34.6601L32.6801 21H31.6721L30.1601 16.308L28.6421 21H27.6341ZM39.9669 21.18C39.4869 21.18 39.0849 21.092 38.7609 20.916C38.4369 20.736 38.1909 20.5 38.0229 20.208C37.8589 19.912 37.7769 19.588 37.7769 19.236C37.7769 18.908 37.8349 18.62 37.9509 18.372C38.0669 18.124 38.2389 17.914 38.4669 17.742C38.6949 17.566 38.9749 17.424 39.3069 17.316C39.5949 17.232 39.9209 17.158 40.2849 17.094C40.6489 17.03 41.0309 16.97 41.4309 16.914C41.8349 16.858 42.2349 16.802 42.6309 16.746L42.1749 16.998C42.1829 16.49 42.0749 16.114 41.8509 15.87C41.6309 15.622 41.2509 15.498 40.7109 15.498C40.3709 15.498 40.0589 15.578 39.7749 15.738C39.4909 15.894 39.2929 16.154 39.1809 16.518L38.0109 16.158C38.1709 15.602 38.4749 15.16 38.9229 14.832C39.3749 14.504 39.9749 14.34 40.7229 14.34C41.3029 14.34 41.8069 14.44 42.2349 14.64C42.6669 14.836 42.9829 15.148 43.1829 15.576C43.2869 15.788 43.3509 16.012 43.3749 16.248C43.3989 16.484 43.4109 16.738 43.4109 17.01V21H42.3009V19.518L42.5169 19.71C42.2489 20.206 41.9069 20.576 41.4909 20.82C41.0789 21.06 40.5709 21.18 39.9669 21.18ZM40.1889 20.154C40.5449 20.154 40.8509 20.092 41.1069 19.968C41.3629 19.84 41.5689 19.678 41.7249 19.482C41.8809 19.286 41.9829 19.082 42.0309 18.87C42.0989 18.678 42.1369 18.462 42.1449 18.222C42.1569 17.982 42.1629 17.79 42.1629 17.646L42.5709 17.796C42.1749 17.856 41.8149 17.91 41.4909 17.958C41.1669 18.006 40.8729 18.054 40.6089 18.102C40.3489 18.146 40.1169 18.2 39.9129 18.264C39.7409 18.324 39.5869 18.396 39.4509 18.48C39.3189 18.564 39.2129 18.666 39.1329 18.786C39.0569 18.906 39.0189 19.052 39.0189 19.224C39.0189 19.392 39.0609 19.548 39.1449 19.692C39.2289 19.832 39.3569 19.944 39.5289 20.028C39.7009 20.112 39.9209 20.154 40.1889 20.154ZM45.0889 21V12.18H46.3429V21H45.0889ZM48.2647 21V12.18H49.5187V21H48.2647ZM55.5528 21.18C55.0728 21.18 54.6708 21.092 54.3468 20.916C54.0228 20.736 53.7768 20.5 53.6088 20.208C53.4448 19.912 53.3628 19.588 53.3628 19.236C53.3628 18.908 53.4208 18.62 53.5368 18.372C53.6528 18.124 53.8248 17.914 54.0528 17.742C54.2808 17.566 54.5608 17.424 54.8928 17.316C55.1808 17.232 55.5068 17.158 55.8708 17.094C56.2348 17.03 56.6168 16.97 57.0168 16.914C57.4208 16.858 57.8208 16.802 58.2168 16.746L57.7608 16.998C57.7688 16.49 57.6608 16.114 57.4368 15.87C57.2168 15.622 56.8368 15.498 56.2968 15.498C55.9568 15.498 55.6448 15.578 55.3608 15.738C55.0768 15.894 54.8788 16.154 54.7668 16.518L53.5968 16.158C53.7568 15.602 54.0608 15.16 54.5088 14.832C54.9608 14.504 55.5608 14.34 56.3088 14.34C56.8888 14.34 57.3928 14.44 57.8208 14.64C58.2528 14.836 58.5688 15.148 58.7688 15.576C58.8728 15.788 58.9368 16.012 58.9608 16.248C58.9848 16.484 58.9968 16.738 58.9968 17.01V21H57.8868V19.518L58.1028 19.71C57.8348 20.206 57.4928 20.576 57.0768 20.82C56.6648 21.06 56.1568 21.18 55.5528 21.18ZM55.7748 20.154C56.1308 20.154 56.4368 20.092 56.6928 19.968C56.9488 19.84 57.1548 19.678 57.3108 19.482C57.4668 19.286 57.5688 19.082 57.6168 18.87C57.6848 18.678 57.7228 18.462 57.7308 18.222C57.7428 17.982 57.7488 17.79 57.7488 17.646L58.1568 17.796C57.7608 17.856 57.4008 17.91 57.0768 17.958C56.7528 18.006 56.4588 18.054 56.1948 18.102C55.9348 18.146 55.7028 18.2 55.4988 18.264C55.3268 18.324 55.1728 18.396 55.0368 18.48C54.9048 18.564 54.7988 18.666 54.7188 18.786C54.6428 18.906 54.6048 19.052 54.6048 19.224C54.6048 19.392 54.6468 19.548 54.7308 19.692C54.8148 19.832 54.9428 19.944 55.1148 20.028C55.2868 20.112 55.5068 20.154 55.7748 20.154ZM60.5548 21V14.52H61.6708V16.092L61.5148 15.888C61.5948 15.68 61.6988 15.49 61.8268 15.318C61.9548 15.142 62.1028 14.998 62.2708 14.886C62.4348 14.766 62.6168 14.674 62.8168 14.61C63.0208 14.542 63.2288 14.502 63.4408 14.49C63.6528 14.474 63.8568 14.484 64.0528 14.52V15.696C63.8408 15.64 63.6048 15.624 63.3448 15.648C63.0888 15.672 62.8528 15.754 62.6368 15.894C62.4328 16.026 62.2708 16.186 62.1508 16.374C62.0348 16.562 61.9508 16.772 61.8988 17.004C61.8468 17.232 61.8208 17.474 61.8208 17.73V21H60.5548ZM68.9035 21C68.4955 21.08 68.0955 21.114 67.7035 21.102C67.3115 21.09 66.9615 21.014 66.6535 20.874C66.3455 20.734 66.1135 20.514 65.9575 20.214C65.8175 19.946 65.7415 19.674 65.7295 19.398C65.7215 19.118 65.7175 18.802 65.7175 18.45V12.72H66.9775V18.39C66.9775 18.65 66.9795 18.876 66.9835 19.068C66.9915 19.26 67.0335 19.422 67.1095 19.554C67.2535 19.802 67.4815 19.944 67.7935 19.98C68.1095 20.012 68.4795 19.998 68.9035 19.938V21ZM64.4755 15.528V14.52H68.9035V15.528H64.4755ZM70.3897 13.458V12.24H71.6437V13.458H70.3897ZM70.3897 21V14.52H71.6437V21H70.3897ZM75.9235 21.174C75.1355 21.174 74.4935 21 73.9975 20.652C73.5015 20.304 73.1975 19.814 73.0855 19.182L74.3695 18.984C74.4495 19.32 74.6335 19.586 74.9215 19.782C75.2135 19.974 75.5755 20.07 76.0075 20.07C76.3995 20.07 76.7055 19.99 76.9255 19.83C77.1495 19.67 77.2615 19.45 77.2615 19.17C77.2615 19.006 77.2215 18.874 77.1415 18.774C77.0655 18.67 76.9035 18.572 76.6555 18.48C76.4075 18.388 76.0295 18.274 75.5215 18.138C74.9655 17.994 74.5235 17.84 74.1955 17.676C73.8715 17.508 73.6395 17.314 73.4995 17.094C73.3635 16.87 73.2955 16.6 73.2955 16.284C73.2955 15.892 73.3995 15.55 73.6075 15.258C73.8155 14.966 74.1075 14.74 74.4835 14.58C74.8635 14.42 75.3075 14.34 75.8155 14.34C76.3115 14.34 76.7535 14.418 77.1415 14.574C77.5295 14.73 77.8435 14.952 78.0835 15.24C78.3235 15.524 78.4675 15.858 78.5155 16.242L77.2315 16.476C77.1875 16.164 77.0415 15.918 76.7935 15.738C76.5455 15.558 76.2235 15.46 75.8275 15.444C75.4475 15.428 75.1395 15.492 74.9035 15.636C74.6675 15.776 74.5495 15.97 74.5495 16.218C74.5495 16.362 74.5935 16.484 74.6815 16.584C74.7735 16.684 74.9495 16.78 75.2095 16.872C75.4695 16.964 75.8535 17.074 76.3615 17.202C76.9055 17.342 77.3375 17.498 77.6575 17.67C77.9775 17.838 78.2055 18.04 78.3415 18.276C78.4815 18.508 78.5515 18.79 78.5515 19.122C78.5515 19.762 78.3175 20.264 77.8495 20.628C77.3855 20.992 76.7435 21.174 75.9235 21.174ZM83.5871 21C83.1791 21.08 82.7791 21.114 82.3871 21.102C81.9951 21.09 81.6451 21.014 81.3371 20.874C81.0291 20.734 80.7971 20.514 80.6411 20.214C80.5011 19.946 80.4251 19.674 80.4131 19.398C80.4051 19.118 80.4011 18.802 80.4011 18.45V12.72H81.6611V18.39C81.6611 18.65 81.6631 18.876 81.6671 19.068C81.6751 19.26 81.7171 19.422 81.7931 19.554C81.9371 19.802 82.1651 19.944 82.4771 19.98C82.7931 20.012 83.1631 19.998 83.5871 19.938V21ZM79.1591 15.528V14.52H83.5871V15.528H79.1591ZM87.4313 21.174C86.6433 21.174 86.0013 21 85.5053 20.652C85.0093 20.304 84.7053 19.814 84.5933 19.182L85.8773 18.984C85.9573 19.32 86.1413 19.586 86.4293 19.782C86.7213 19.974 87.0833 20.07 87.5153 20.07C87.9073 20.07 88.2133 19.99 88.4333 19.83C88.6573 19.67 88.7693 19.45 88.7693 19.17C88.7693 19.006 88.7293 18.874 88.6493 18.774C88.5733 18.67 88.4113 18.572 88.1633 18.48C87.9153 18.388 87.5373 18.274 87.0293 18.138C86.4733 17.994 86.0313 17.84 85.7033 17.676C85.3793 17.508 85.1473 17.314 85.0073 17.094C84.8713 16.87 84.8033 16.6 84.8033 16.284C84.8033 15.892 84.9073 15.55 85.1153 15.258C85.3233 14.966 85.6153 14.74 85.9913 14.58C86.3713 14.42 86.8153 14.34 87.3233 14.34C87.8193 14.34 88.2613 14.418 88.6493 14.574C89.0373 14.73 89.3513 14.952 89.5913 15.24C89.8313 15.524 89.9753 15.858 90.0233 16.242L88.7393 16.476C88.6953 16.164 88.5493 15.918 88.3013 15.738C88.0533 15.558 87.7313 15.46 87.3353 15.444C86.9553 15.428 86.6473 15.492 86.4113 15.636C86.1753 15.776 86.0573 15.97 86.0573 16.218C86.0573 16.362 86.1013 16.484 86.1893 16.584C86.2813 16.684 86.4573 16.78 86.7173 16.872C86.9773 16.964 87.3613 17.074 87.8693 17.202C88.4133 17.342 88.8453 17.498 89.1653 17.67C89.4853 17.838 89.7133 18.04 89.8493 18.276C89.9893 18.508 90.0593 18.79 90.0593 19.122C90.0593 19.762 89.8253 20.264 89.3573 20.628C88.8933 20.992 88.2513 21.174 87.4313 21.174Z" fill="#4C4C4C"/>
</svg>
