<svg width="113" height="32" viewBox="0 0 113 32" fill="none" xmlns="http://www.w3.org/2000/svg">
<path d="M3.99998 12C5.47274 12 6.66665 10.8061 6.66665 9.33335C6.66665 7.86059 5.47274 6.66669 3.99998 6.66669C2.52722 6.66669 1.33331 7.86059 1.33331 9.33335C1.33331 10.8061 2.52722 12 3.99998 12Z" stroke="#B4CD93" stroke-width="1.5" stroke-miterlimit="10" stroke-linecap="round" stroke-linejoin="round"/>
<path d="M28 12C29.4727 12 30.6666 10.8061 30.6666 9.33335C30.6666 7.86059 29.4727 6.66669 28 6.66669C26.5272 6.66669 25.3333 7.86059 25.3333 9.33335C25.3333 10.8061 26.5272 12 28 12Z" stroke="#B4CD93" stroke-width="1.5" stroke-miterlimit="10" stroke-linecap="round" stroke-linejoin="round"/>
<path d="M25.3333 9.33334H20" stroke="#B4CD93" stroke-width="1.5" stroke-miterlimit="10" stroke-linecap="round" stroke-linejoin="round"/>
<path d="M12 9.33334H6.66663" stroke="#B4CD93" stroke-width="1.5" stroke-miterlimit="10" stroke-linecap="round" stroke-linejoin="round"/>
<path d="M9.99998 22V24.6667C9.99998 25.48 9.50665 26.1866 8.81331 26.48C8.55998 26.6 8.29331 26.6667 7.99998 26.6667H5.33331C4.22665 26.6667 3.33331 25.7733 3.33331 24.6667V22C3.33331 20.8933 4.22665 20 5.33331 20H7.99998C9.10665 20 9.99998 20.8933 9.99998 22Z" stroke="#B4CD93" stroke-width="1.5" stroke-miterlimit="10" stroke-linecap="round" stroke-linejoin="round"/>
<path d="M28.6667 22V24.6667C28.6667 25.7733 27.7733 26.6667 26.6667 26.6667H24C23.7067 26.6667 23.44 26.6 23.1867 26.48C22.4933 26.1866 22 25.48 22 24.6667V22C22 20.8933 22.8933 20 24 20H26.6667C27.7733 20 28.6667 20.8933 28.6667 22Z" stroke="#B4CD93" stroke-width="1.5" stroke-miterlimit="10" stroke-linecap="round" stroke-linejoin="round"/>
<path d="M20 7.33334V11.3333C20 12.4267 19.0933 13.3333 18 13.3333H14C12.9067 13.3333 12 12.4267 12 11.3333V7.33334C12 6.24001 12.9067 5.33334 14 5.33334H18C19.0933 5.33334 20 6.24001 20 7.33334Z" stroke="#B4CD93" stroke-width="1.5" stroke-miterlimit="10" stroke-linecap="round" stroke-linejoin="round"/>
<path d="M20 10.3066C23.16 11.9066 25.3333 15.3467 25.3333 19.3333C25.3333 19.56 25.32 19.7733 25.2933 20" stroke="#B4CD93" stroke-width="1.5" stroke-miterlimit="10" stroke-linecap="round" stroke-linejoin="round"/>
<path d="M6.70663 20C6.67996 19.7733 6.66663 19.56 6.66663 19.3333C6.66663 15.3467 8.83996 11.9066 12 10.3066" stroke="#B4CD93" stroke-width="1.5" stroke-miterlimit="10" stroke-linecap="round" stroke-linejoin="round"/>
<path d="M41.68 25V7.72H48.472C49.568 7.72 50.488 7.944 51.232 8.392C51.976 8.84 52.536 9.42 52.912 10.132C53.288 10.836 53.476 11.58 53.476 12.364C53.476 13.316 53.24 14.132 52.768 14.812C52.304 15.492 51.676 15.956 50.884 16.204L50.86 15.616C51.964 15.888 52.812 16.42 53.404 17.212C53.996 17.996 54.292 18.912 54.292 19.96C54.292 20.976 54.088 21.86 53.68 22.612C53.28 23.364 52.692 23.952 51.916 24.376C51.148 24.792 50.216 25 49.12 25H41.68ZM44.224 22.612H48.736C49.304 22.612 49.812 22.504 50.26 22.288C50.716 22.072 51.072 21.764 51.328 21.364C51.592 20.956 51.724 20.472 51.724 19.912C51.724 19.392 51.608 18.924 51.376 18.508C51.152 18.084 50.824 17.752 50.392 17.512C49.968 17.264 49.468 17.14 48.892 17.14H44.224V22.612ZM44.224 14.776H48.436C48.9 14.776 49.316 14.684 49.684 14.5C50.06 14.308 50.356 14.036 50.572 13.684C50.796 13.324 50.908 12.892 50.908 12.388C50.908 11.716 50.684 11.164 50.236 10.732C49.788 10.3 49.188 10.084 48.436 10.084H44.224V14.776ZM62.428 25.36C61.14 25.36 60.008 25.08 59.032 24.52C58.064 23.952 57.308 23.164 56.764 22.156C56.228 21.14 55.96 19.964 55.96 18.628C55.96 17.212 56.224 15.984 56.752 14.944C57.288 13.904 58.032 13.1 58.984 12.532C59.936 11.964 61.044 11.68 62.308 11.68C63.628 11.68 64.752 11.988 65.68 12.604C66.608 13.212 67.3 14.08 67.756 15.208C68.22 16.336 68.404 17.676 68.308 19.228H65.8V18.316C65.784 16.812 65.496 15.7 64.936 14.98C64.384 14.26 63.54 13.9 62.404 13.9C61.148 13.9 60.204 14.296 59.572 15.088C58.94 15.88 58.624 17.024 58.624 18.52C58.624 19.944 58.94 21.048 59.572 21.832C60.204 22.608 61.116 22.996 62.308 22.996C63.092 22.996 63.768 22.82 64.336 22.468C64.912 22.108 65.36 21.596 65.68 20.932L68.14 21.712C67.636 22.872 66.872 23.772 65.848 24.412C64.824 25.044 63.684 25.36 62.428 25.36ZM57.808 19.228V17.272H67.06V19.228H57.808ZM69.8003 25V24.604L77.1563 14.284H70.4723V12.04H81.1403V12.448L73.7963 22.756H80.7803V25H69.8003ZM84.0138 9.916V7.48H86.5218V9.916H84.0138ZM84.0138 25V12.04H86.5218V25H84.0138ZM95.8733 25.36C94.5853 25.36 93.4533 25.08 92.4773 24.52C91.5093 23.952 90.7533 23.164 90.2093 22.156C89.6733 21.14 89.4053 19.964 89.4053 18.628C89.4053 17.212 89.6693 15.984 90.1973 14.944C90.7333 13.904 91.4773 13.1 92.4293 12.532C93.3813 11.964 94.4893 11.68 95.7533 11.68C97.0733 11.68 98.1973 11.988 99.1253 12.604C100.053 13.212 100.745 14.08 101.201 15.208C101.665 16.336 101.849 17.676 101.753 19.228H99.2453V18.316C99.2293 16.812 98.9413 15.7 98.3813 14.98C97.8293 14.26 96.9853 13.9 95.8493 13.9C94.5933 13.9 93.6493 14.296 93.0173 15.088C92.3853 15.88 92.0693 17.024 92.0693 18.52C92.0693 19.944 92.3853 21.048 93.0173 21.832C93.6493 22.608 94.5613 22.996 95.7533 22.996C96.5373 22.996 97.2133 22.82 97.7813 22.468C98.3573 22.108 98.8053 21.596 99.1253 20.932L101.585 21.712C101.081 22.872 100.317 23.772 99.2933 24.412C98.2693 25.044 97.1293 25.36 95.8733 25.36ZM91.2533 19.228V17.272H100.505V19.228H91.2533ZM104.446 25V12.04H106.678V15.184L106.366 14.776C106.526 14.36 106.734 13.98 106.99 13.636C107.246 13.284 107.542 12.996 107.878 12.772C108.206 12.532 108.57 12.348 108.97 12.22C109.378 12.084 109.794 12.004 110.218 11.98C110.642 11.948 111.05 11.968 111.442 12.04V14.392C111.018 14.28 110.546 14.248 110.026 14.296C109.514 14.344 109.042 14.508 108.61 14.788C108.202 15.052 107.878 15.372 107.638 15.748C107.406 16.124 107.238 16.544 107.134 17.008C107.03 17.464 106.978 17.948 106.978 18.46V25H104.446Z" fill="url(#paint0_linear_1_141)"/>
<defs>
<linearGradient id="paint0_linear_1_141" x1="42.6071" y1="11" x2="103.011" y2="33.6126" gradientUnits="userSpaceOnUse">
<stop stop-color="#B4CD93"/>
<stop offset="1" stop-color="#427A5B"/>
</linearGradient>
</defs>
</svg>
