<svg width="41" height="24" viewBox="0 0 41 24" fill="none" xmlns="http://www.w3.org/2000/svg">
<rect width="41" height="24" rx="4" fill="#EDDEDE"/>
<path d="M6.965 13.215L10 16.25L13.035 13.215" stroke="#A65959" stroke-miterlimit="10" stroke-linecap="round" stroke-linejoin="round"/>
<path d="M10 7.75001L10 16.165" stroke="#A65959" stroke-miterlimit="10" stroke-linecap="round" stroke-linejoin="round"/>
<path d="M21.762 17.18C21.222 17.18 20.73 17.05 20.286 16.79C19.846 16.526 19.494 16.17 19.23 15.722C18.97 15.27 18.84 14.762 18.84 14.198V11.204C18.84 10.624 18.97 10.108 19.23 9.656C19.49 9.2 19.844 8.842 20.292 8.582C20.744 8.318 21.256 8.186 21.828 8.186C22.32 8.186 22.776 8.294 23.196 8.51C23.62 8.726 23.966 9.028 24.234 9.416L23.556 9.974C23.372 9.686 23.128 9.456 22.824 9.284C22.52 9.112 22.188 9.026 21.828 9.026C21.424 9.026 21.064 9.124 20.748 9.32C20.432 9.516 20.184 9.774 20.004 10.094C19.824 10.41 19.734 10.754 19.734 11.126V13.01L19.512 12.758C19.764 12.362 20.094 12.042 20.502 11.798C20.914 11.554 21.362 11.432 21.846 11.432C22.382 11.432 22.864 11.56 23.292 11.816C23.72 12.068 24.06 12.41 24.312 12.842C24.564 13.274 24.69 13.758 24.69 14.294C24.69 14.826 24.556 15.31 24.288 15.746C24.024 16.182 23.67 16.53 23.226 16.79C22.786 17.05 22.298 17.18 21.762 17.18ZM21.762 16.322C22.138 16.322 22.48 16.232 22.788 16.052C23.1 15.872 23.346 15.628 23.526 15.32C23.71 15.012 23.802 14.67 23.802 14.294C23.802 13.918 23.71 13.576 23.526 13.268C23.346 12.956 23.102 12.71 22.794 12.53C22.486 12.346 22.144 12.254 21.768 12.254C21.392 12.254 21.05 12.346 20.742 12.53C20.434 12.71 20.188 12.956 20.004 13.268C19.824 13.576 19.734 13.918 19.734 14.294C19.734 14.666 19.824 15.006 20.004 15.314C20.184 15.622 20.428 15.868 20.736 16.052C21.044 16.232 21.386 16.322 21.762 16.322ZM27.1214 17L26.5214 16.4L34.5794 8.36L35.1794 8.954L27.1214 17ZM33.3794 17.18C32.9834 17.18 32.6214 17.084 32.2934 16.892C31.9694 16.696 31.7094 16.436 31.5134 16.112C31.3174 15.784 31.2194 15.42 31.2194 15.02C31.2194 14.628 31.3194 14.268 31.5194 13.94C31.7194 13.612 31.9834 13.35 32.3114 13.154C32.6394 12.958 32.9954 12.86 33.3794 12.86C33.7754 12.86 34.1374 12.958 34.4654 13.154C34.7934 13.346 35.0534 13.606 35.2454 13.934C35.4414 14.258 35.5394 14.62 35.5394 15.02C35.5394 15.42 35.4414 15.784 35.2454 16.112C35.0534 16.436 34.7934 16.696 34.4654 16.892C34.1374 17.084 33.7754 17.18 33.3794 17.18ZM33.3794 16.382C33.6234 16.382 33.8494 16.32 34.0574 16.196C34.2654 16.072 34.4314 15.908 34.5554 15.704C34.6794 15.496 34.7414 15.268 34.7414 15.02C34.7414 14.772 34.6794 14.546 34.5554 14.342C34.4314 14.134 34.2654 13.968 34.0574 13.844C33.8494 13.72 33.6234 13.658 33.3794 13.658C33.1314 13.658 32.9034 13.72 32.6954 13.844C32.4914 13.968 32.3254 14.134 32.1974 14.342C32.0734 14.546 32.0114 14.772 32.0114 15.02C32.0114 15.268 32.0734 15.496 32.1974 15.704C32.3254 15.908 32.4914 16.072 32.6954 16.196C32.9034 16.32 33.1314 16.382 33.3794 16.382ZM28.3214 12.5C27.9254 12.5 27.5634 12.404 27.2354 12.212C26.9074 12.016 26.6454 11.756 26.4494 11.432C26.2574 11.104 26.1614 10.74 26.1614 10.34C26.1614 9.948 26.2614 9.588 26.4614 9.26C26.6614 8.932 26.9254 8.67 27.2534 8.474C27.5814 8.278 27.9374 8.18 28.3214 8.18C28.7174 8.18 29.0774 8.278 29.4014 8.474C29.7294 8.666 29.9914 8.926 30.1874 9.254C30.3834 9.578 30.4814 9.94 30.4814 10.34C30.4814 10.74 30.3834 11.104 30.1874 11.432C29.9914 11.756 29.7294 12.016 29.4014 12.212C29.0774 12.404 28.7174 12.5 28.3214 12.5ZM28.3214 11.702C28.5694 11.702 28.7954 11.64 28.9994 11.516C29.2074 11.392 29.3734 11.228 29.4974 11.024C29.6214 10.816 29.6834 10.588 29.6834 10.34C29.6834 10.092 29.6214 9.866 29.4974 9.662C29.3734 9.454 29.2074 9.288 28.9994 9.164C28.7954 9.04 28.5694 8.978 28.3214 8.978C28.0734 8.978 27.8454 9.04 27.6374 9.164C27.4334 9.288 27.2694 9.454 27.1454 9.662C27.0214 9.866 26.9594 10.092 26.9594 10.34C26.9594 10.588 27.0214 10.816 27.1454 11.024C27.2694 11.228 27.4334 11.392 27.6374 11.516C27.8454 11.64 28.0734 11.702 28.3214 11.702Z" fill="#A65959"/>
</svg>
