<svg width="167" height="40" viewBox="0 0 167 40" fill="none" xmlns="http://www.w3.org/2000/svg">
<rect width="167" height="40" rx="4" fill="#B4CD93"/>
<path d="M21 18H23C25 18 26 17 26 15V13C26 11 25 10 23 10H21C19 10 18 11 18 13V15C18 17 19 18 21 18Z" stroke="#4C4C4C" stroke-width="1.5" stroke-miterlimit="10" stroke-linecap="round" stroke-linejoin="round"/>
<path d="M33 18H35C37 18 38 17 38 15V13C38 11 37 10 35 10H33C31 10 30 11 30 13V15C30 17 31 18 33 18Z" stroke="#4C4C4C" stroke-width="1.5" stroke-miterlimit="10" stroke-linecap="round" stroke-linejoin="round"/>
<path d="M33 30H35C37 30 38 29 38 27V25C38 23 37 22 35 22H33C31 22 30 23 30 25V27C30 29 31 30 33 30Z" stroke="#4C4C4C" stroke-width="1.5" stroke-miterlimit="10" stroke-linecap="round" stroke-linejoin="round"/>
<path d="M21 30H23C25 30 26 29 26 27V25C26 23 25 22 23 22H21C19 22 18 23 18 25V27C18 29 19 30 21 30Z" stroke="#4C4C4C" stroke-width="1.5" stroke-miterlimit="10" stroke-linecap="round" stroke-linejoin="round"/>
<path d="M53.12 26V14.48H56.672C56.7893 14.48 56.9947 14.4827 57.288 14.488C57.5813 14.4933 57.8613 14.5147 58.128 14.552C59.0187 14.6693 59.7627 14.9947 60.36 15.528C60.9627 16.056 61.416 16.728 61.72 17.544C62.024 18.36 62.176 19.2587 62.176 20.24C62.176 21.2213 62.024 22.12 61.72 22.936C61.416 23.752 60.9627 24.4267 60.36 24.96C59.7627 25.488 59.0187 25.8107 58.128 25.928C57.8613 25.96 57.5787 25.9813 57.28 25.992C56.9867 25.9973 56.784 26 56.672 26H53.12ZM54.584 24.64H56.672C56.8747 24.64 57.1013 24.6347 57.352 24.624C57.6027 24.608 57.8213 24.584 58.008 24.552C58.6373 24.4347 59.1467 24.1707 59.536 23.76C59.9253 23.3493 60.2107 22.8373 60.392 22.224C60.5733 21.6107 60.664 20.9493 60.664 20.24C60.664 19.5147 60.5707 18.8453 60.384 18.232C60.2027 17.6187 59.9173 17.1093 59.528 16.704C59.1387 16.2987 58.632 16.04 58.008 15.928C57.8213 15.8907 57.6 15.8667 57.344 15.856C57.088 15.8453 56.864 15.84 56.672 15.84H54.584V24.64ZM66.4666 26.24C65.8213 26.24 65.28 26.1227 64.8426 25.888C64.4106 25.648 64.0826 25.3333 63.8586 24.944C63.64 24.5547 63.5306 24.128 63.5306 23.664C63.5306 23.2107 63.616 22.8187 63.7866 22.488C63.9626 22.152 64.208 21.8747 64.5226 21.656C64.8373 21.432 65.2133 21.256 65.6506 21.128C66.0613 21.016 66.52 20.92 67.0266 20.84C67.5386 20.7547 68.056 20.6773 68.5786 20.608C69.1013 20.5387 69.5893 20.472 70.0426 20.408L69.5306 20.704C69.5466 19.936 69.392 19.368 69.0666 19C68.7466 18.632 68.192 18.448 67.4026 18.448C66.88 18.448 66.4213 18.568 66.0266 18.808C65.6373 19.0427 65.3626 19.4267 65.2026 19.96L63.8506 19.552C64.0586 18.7947 64.4613 18.2 65.0586 17.768C65.656 17.336 66.4426 17.12 67.4186 17.12C68.2026 17.12 68.8746 17.2613 69.4346 17.544C70 17.8213 70.4053 18.2427 70.6506 18.808C70.7733 19.0747 70.8506 19.3653 70.8826 19.68C70.9146 19.9893 70.9306 20.3147 70.9306 20.656V26H69.6666V23.928L69.9626 24.12C69.6373 24.8187 69.1813 25.3467 68.5946 25.704C68.0133 26.0613 67.304 26.24 66.4666 26.24ZM66.6826 25.048C67.1946 25.048 67.6373 24.9573 68.0106 24.776C68.3893 24.5893 68.6933 24.3467 68.9226 24.048C69.152 23.744 69.3013 23.4133 69.3706 23.056C69.4506 22.7893 69.4933 22.4933 69.4986 22.168C69.5093 21.8373 69.5146 21.584 69.5146 21.408L70.0106 21.624C69.5466 21.688 69.0906 21.7493 68.6426 21.808C68.1946 21.8667 67.7706 21.9307 67.3706 22C66.9706 22.064 66.6106 22.1413 66.2906 22.232C66.056 22.3067 65.8346 22.4027 65.6266 22.52C65.424 22.6373 65.2586 22.7893 65.1306 22.976C65.008 23.1573 64.9466 23.384 64.9466 23.656C64.9466 23.8907 65.0053 24.1147 65.1226 24.328C65.2453 24.5413 65.432 24.7147 65.6826 24.848C65.9386 24.9813 66.272 25.048 66.6826 25.048ZM76.2746 26.232C75.2453 26.232 74.4 26.008 73.7386 25.56C73.0826 25.1067 72.68 24.4747 72.5306 23.664L73.9866 23.432C74.104 23.9013 74.3733 24.2747 74.7946 24.552C75.216 24.824 75.7386 24.96 76.3626 24.96C76.9546 24.96 77.4186 24.8373 77.7546 24.592C78.0906 24.3467 78.2586 24.0133 78.2586 23.592C78.2586 23.3467 78.2026 23.1493 78.0906 23C77.9786 22.8453 77.7466 22.7013 77.3946 22.568C77.048 22.4347 76.5226 22.2747 75.8186 22.088C75.056 21.8853 74.456 21.6747 74.0186 21.456C73.5813 21.2373 73.2693 20.984 73.0826 20.696C72.896 20.408 72.8026 20.0587 72.8026 19.648C72.8026 19.1413 72.9413 18.6987 73.2186 18.32C73.496 17.936 73.8826 17.64 74.3786 17.432C74.88 17.224 75.4613 17.12 76.1226 17.12C76.7786 17.12 77.3653 17.224 77.8826 17.432C78.4 17.64 78.816 17.936 79.1306 18.32C79.4506 18.6987 79.64 19.1413 79.6986 19.648L78.2426 19.912C78.1733 19.448 77.9493 19.0827 77.5706 18.816C77.1973 18.5493 76.7146 18.408 76.1226 18.392C75.5626 18.3707 75.1066 18.4693 74.7546 18.688C74.408 18.9067 74.2346 19.2027 74.2346 19.576C74.2346 19.784 74.2986 19.9627 74.4266 20.112C74.56 20.2613 74.8026 20.4027 75.1546 20.536C75.512 20.6693 76.0293 20.8213 76.7066 20.992C77.4693 21.184 78.0693 21.3947 78.5066 21.624C78.9493 21.848 79.264 22.1147 79.4506 22.424C79.6373 22.728 79.7306 23.104 79.7306 23.552C79.7306 24.384 79.424 25.04 78.8106 25.52C78.1973 25.9947 77.352 26.232 76.2746 26.232ZM87.647 26V21.672C87.647 21.2613 87.6097 20.8667 87.535 20.488C87.4657 20.1093 87.3403 19.7707 87.159 19.472C86.983 19.168 86.743 18.928 86.439 18.752C86.1403 18.576 85.7617 18.488 85.303 18.488C84.9457 18.488 84.6203 18.5493 84.327 18.672C84.039 18.7893 83.791 18.9707 83.583 19.216C83.375 19.4613 83.2123 19.7707 83.095 20.144C82.983 20.512 82.927 20.9467 82.927 21.448L81.991 21.16C81.991 20.3227 82.1403 19.6053 82.439 19.008C82.743 18.4053 83.167 17.944 83.711 17.624C84.2603 17.2987 84.9057 17.136 85.647 17.136C86.207 17.136 86.6843 17.224 87.079 17.4C87.4737 17.576 87.8017 17.8107 88.063 18.104C88.3243 18.392 88.5297 18.7173 88.679 19.08C88.8283 19.4373 88.9323 19.8027 88.991 20.176C89.055 20.544 89.087 20.8933 89.087 21.224V26H87.647ZM81.487 26V14.48H82.767V20.84H82.927V26H81.487ZM95.1349 26.24C94.3242 26.24 93.6415 26.04 93.0869 25.64C92.5322 25.2347 92.1109 24.688 91.8229 24C91.5402 23.3067 91.3989 22.5307 91.3989 21.672C91.3989 20.8027 91.5402 20.024 91.8229 19.336C92.1109 18.648 92.5322 18.1067 93.0869 17.712C93.6469 17.3173 94.3322 17.12 95.1429 17.12C95.9429 17.12 96.6309 17.32 97.2069 17.72C97.7882 18.1147 98.2335 18.656 98.5429 19.344C98.8522 20.032 99.0069 20.808 99.0069 21.672C99.0069 22.536 98.8522 23.312 98.5429 24C98.2335 24.688 97.7882 25.2347 97.2069 25.64C96.6309 26.04 95.9402 26.24 95.1349 26.24ZM91.1589 26V14.48H92.5909V19.64H92.4309V26H91.1589ZM94.9589 24.936C95.5295 24.936 96.0015 24.792 96.3749 24.504C96.7482 24.216 97.0282 23.8267 97.2149 23.336C97.4015 22.84 97.4949 22.2853 97.4949 21.672C97.4949 21.064 97.4015 20.5147 97.2149 20.024C97.0335 19.5333 96.7509 19.144 96.3669 18.856C95.9882 18.568 95.5055 18.424 94.9189 18.424C94.3589 18.424 93.8949 18.5627 93.5269 18.84C93.1589 19.112 92.8842 19.4933 92.7029 19.984C92.5215 20.4693 92.4309 21.032 92.4309 21.672C92.4309 22.3013 92.5189 22.864 92.6949 23.36C92.8762 23.8507 93.1535 24.2373 93.5269 24.52C93.9002 24.7973 94.3775 24.936 94.9589 24.936ZM104.441 26.24C103.582 26.24 102.841 26.0453 102.217 25.656C101.598 25.2667 101.121 24.728 100.785 24.04C100.449 23.352 100.281 22.5627 100.281 21.672C100.281 20.7653 100.451 19.9707 100.793 19.288C101.134 18.6053 101.617 18.0747 102.241 17.696C102.865 17.312 103.598 17.12 104.441 17.12C105.305 17.12 106.049 17.3147 106.673 17.704C107.297 18.088 107.774 18.624 108.105 19.312C108.441 19.9947 108.609 20.7813 108.609 21.672C108.609 22.5733 108.441 23.368 108.105 24.056C107.769 24.7387 107.289 25.2747 106.665 25.664C106.041 26.048 105.299 26.24 104.441 26.24ZM104.441 24.888C105.337 24.888 106.003 24.5893 106.441 23.992C106.878 23.3947 107.097 22.6213 107.097 21.672C107.097 20.696 106.875 19.92 106.433 19.344C105.99 18.7627 105.326 18.472 104.441 18.472C103.838 18.472 103.342 18.608 102.953 18.88C102.563 19.152 102.273 19.528 102.081 20.008C101.889 20.488 101.793 21.0427 101.793 21.672C101.793 22.6427 102.017 23.4213 102.465 24.008C102.913 24.5947 103.571 24.888 104.441 24.888ZM112.826 26.24C112.181 26.24 111.639 26.1227 111.202 25.888C110.77 25.648 110.442 25.3333 110.218 24.944C109.999 24.5547 109.89 24.128 109.89 23.664C109.89 23.2107 109.975 22.8187 110.146 22.488C110.322 22.152 110.567 21.8747 110.882 21.656C111.197 21.432 111.573 21.256 112.01 21.128C112.421 21.016 112.879 20.92 113.386 20.84C113.898 20.7547 114.415 20.6773 114.938 20.608C115.461 20.5387 115.949 20.472 116.402 20.408L115.89 20.704C115.906 19.936 115.751 19.368 115.426 19C115.106 18.632 114.551 18.448 113.762 18.448C113.239 18.448 112.781 18.568 112.386 18.808C111.997 19.0427 111.722 19.4267 111.562 19.96L110.21 19.552C110.418 18.7947 110.821 18.2 111.418 17.768C112.015 17.336 112.802 17.12 113.778 17.12C114.562 17.12 115.234 17.2613 115.794 17.544C116.359 17.8213 116.765 18.2427 117.01 18.808C117.133 19.0747 117.21 19.3653 117.242 19.68C117.274 19.9893 117.29 20.3147 117.29 20.656V26H116.026V23.928L116.322 24.12C115.997 24.8187 115.541 25.3467 114.954 25.704C114.373 26.0613 113.663 26.24 112.826 26.24ZM113.042 25.048C113.554 25.048 113.997 24.9573 114.37 24.776C114.749 24.5893 115.053 24.3467 115.282 24.048C115.511 23.744 115.661 23.4133 115.73 23.056C115.81 22.7893 115.853 22.4933 115.858 22.168C115.869 21.8373 115.874 21.584 115.874 21.408L116.37 21.624C115.906 21.688 115.45 21.7493 115.002 21.808C114.554 21.8667 114.13 21.9307 113.73 22C113.33 22.064 112.97 22.1413 112.65 22.232C112.415 22.3067 112.194 22.4027 111.986 22.52C111.783 22.6373 111.618 22.7893 111.49 22.976C111.367 23.1573 111.306 23.384 111.306 23.656C111.306 23.8907 111.365 24.1147 111.482 24.328C111.605 24.5413 111.791 24.7147 112.042 24.848C112.298 24.9813 112.631 25.048 113.042 25.048ZM119.37 26V17.36H120.642V19.448L120.434 19.176C120.535 18.9093 120.666 18.664 120.826 18.44C120.991 18.216 121.175 18.032 121.378 17.888C121.602 17.7067 121.855 17.568 122.138 17.472C122.421 17.376 122.709 17.32 123.002 17.304C123.295 17.2827 123.57 17.3013 123.826 17.36V18.696C123.527 18.616 123.199 18.5947 122.842 18.632C122.485 18.6693 122.154 18.8 121.85 19.024C121.573 19.2213 121.357 19.4613 121.202 19.744C121.053 20.0267 120.949 20.3333 120.89 20.664C120.831 20.9893 120.802 21.3227 120.802 21.664V26H119.37ZM128.575 26.24C127.769 26.24 127.079 26.04 126.503 25.64C125.927 25.2347 125.481 24.688 125.167 24C124.857 23.312 124.703 22.536 124.703 21.672C124.703 20.808 124.857 20.032 125.167 19.344C125.481 18.656 125.927 18.1147 126.503 17.72C127.079 17.32 127.767 17.12 128.567 17.12C129.383 17.12 130.068 17.3173 130.623 17.712C131.177 18.1067 131.596 18.648 131.879 19.336C132.167 20.024 132.311 20.8027 132.311 21.672C132.311 22.5307 132.167 23.3067 131.879 24C131.596 24.688 131.177 25.2347 130.623 25.64C130.068 26.04 129.385 26.24 128.575 26.24ZM128.751 24.936C129.332 24.936 129.809 24.7973 130.183 24.52C130.556 24.2373 130.831 23.8507 131.007 23.36C131.188 22.864 131.279 22.3013 131.279 21.672C131.279 21.032 131.188 20.4693 131.007 19.984C130.831 19.4933 130.559 19.112 130.191 18.84C129.823 18.5627 129.356 18.424 128.791 18.424C128.204 18.424 127.719 18.568 127.335 18.856C126.956 19.144 126.673 19.5333 126.487 20.024C126.305 20.5147 126.215 21.064 126.215 21.672C126.215 22.2853 126.308 22.84 126.495 23.336C126.681 23.8267 126.961 24.216 127.335 24.504C127.713 24.792 128.185 24.936 128.751 24.936ZM131.279 26V19.64H131.119V14.48H132.551V26H131.279Z" fill="#4C4C4C"/>
</svg>
