<?xml version="1.0" standalone="no"?>
<!DOCTYPE svg PUBLIC "-//W3C//DTD SVG 20010904//EN"
 "http://www.w3.org/TR/2001/REC-SVG-20010904/DTD/svg10.dtd">
<svg   version="1.0" xmlns="http://www.w3.org/2000/svg"
 width="100" height="100"  viewBox="0 0 600.000000 480.000000"
 preserveAspectRatio="xMidYMid meet">
<metadata>
Created by potrace 1.16, written by Peter Selinger 2001-2019
</metadata>
<g transform="translate(0.000000,480.000000) scale(0.100000,-0.100000)"
fill="red" stroke="none">
<path d="M3369 4341 c-23 -23 -29 -39 -29 -73 -1 -29 -8 -52 -23 -70 l-22 -27
-70 19 c-38 10 -82 21 -97 24 -19 4 -28 13 -28 27 0 34 -28 76 -60 89 -68 28
-150 -16 -150 -80 0 -24 -5 -31 -27 -36 -53 -11 -68 -16 -131 -41 -72 -28 -95
-21 -86 27 12 56 -29 99 -94 100 -33 0 -49 -6 -68 -26 -22 -21 -25 -30 -19
-62 4 -20 9 -108 12 -194 l4 -158 -23 0 c-35 0 -48 -13 -54 -52 -5 -28 -2 -40
16 -58 12 -12 26 -36 31 -52 7 -25 4 -36 -15 -62 -28 -37 -56 -115 -56 -156 0
-29 -2 -30 -42 -30 -24 0 -74 -3 -111 -7 -68 -6 -68 -6 -62 -32 11 -42 80
-186 115 -236 17 -25 50 -59 71 -75 42 -30 42 -34 -8 -45 -45 -9 -106 -72
-121 -124 -16 -51 -8 -111 18 -144 19 -24 19 -24 -15 -57 -18 -18 -46 -60 -62
-94 -24 -53 -28 -73 -28 -156 0 -152 25 -186 253 -345 77 -53 142 -96 144 -94
1 2 38 -15 80 -39 82 -45 98 -49 127 -30 16 10 42 1 162 -55 151 -70 249 -107
282 -107 50 0 185 134 248 245 17 30 41 61 55 70 14 9 32 31 39 49 8 18 21 39
31 46 9 8 20 23 24 35 5 13 37 32 91 56 82 34 85 37 136 113 29 43 56 88 59
101 8 34 -61 155 -96 168 -14 6 -33 22 -42 37 -9 15 -40 40 -69 56 l-54 29 3
50 c3 40 -1 56 -18 77 -11 15 -28 50 -36 77 -8 28 -28 64 -45 81 -29 29 -30
32 -15 49 9 10 16 27 16 38 0 14 8 23 26 27 23 6 25 11 22 49 l-3 42 40 5 c58
7 57 32 -3 110 l-49 63 24 35 c27 41 27 63 -3 76 -28 13 -56 89 -44 120 5 13
6 27 3 30 -3 3 6 15 20 27 32 24 35 54 7 69 -19 10 -20 21 -20 184 0 135 3
180 15 202 23 45 18 73 -19 110 -29 29 -41 34 -81 34 -38 0 -52 -5 -76 -29z
m119 -53 c18 -18 15 -43 -8 -63 -19 -17 -20 -31 -20 -192 l0 -173 -460 0 -460
0 0 159 c0 132 -3 160 -15 165 -19 7 -19 50 0 66 19 15 64 5 72 -17 3 -8 1
-25 -6 -36 -12 -18 -2 -31 110 -143 68 -68 126 -124 129 -124 3 0 36 61 73
136 48 97 65 140 58 147 -16 16 -13 52 3 67 38 30 92 -12 67 -52 -12 -20 -8
-33 45 -140 32 -65 62 -118 67 -118 4 0 69 55 143 123 123 112 133 124 128
150 -3 16 0 34 6 42 15 18 52 19 68 3z m-8 -488 c0 -7 -173 -10 -500 -10 -327
0 -500 3 -500 10 0 7 173 10 500 10 327 0 500 -3 500 -10z m-10 -150 l20 -40
-69 0 c-49 0 -74 -5 -85 -15 -8 -8 -19 -15 -25 -15 -5 0 -13 -9 -16 -20 -3
-11 -15 -25 -26 -30 -37 -20 -23 -40 29 -40 36 0 57 -7 82 -25 41 -31 48 -31
77 -3 l23 21 26 -24 c31 -28 84 -98 84 -111 0 -4 -38 -8 -85 -8 -78 0 -85 2
-85 20 0 13 7 20 20 20 11 0 20 7 20 15 0 32 -128 14 -185 -26 -17 -12 -21
-18 -10 -14 11 4 39 10 63 12 33 5 42 2 42 -9 0 -9 -15 -21 -32 -29 -18 -7
-57 -28 -85 -46 l-53 -33 0 28 c0 37 -15 60 -24 37 -12 -32 -28 -3 -23 41 5
48 -4 57 -21 22 -10 -22 -11 -22 -11 7 -1 17 10 47 25 69 l26 38 -24 -12 c-12
-7 -33 -22 -45 -33 -13 -11 -23 -17 -23 -13 0 20 38 60 79 83 66 38 78 50 85
87 6 32 36 68 66 79 8 3 43 6 77 6 l63 1 20 -40z m-279 -22 c-12 -33 -48 -78
-63 -78 -5 0 -3 10 3 22 10 18 3 15 -37 -14 -28 -20 -60 -56 -76 -84 -24 -43
-27 -45 -30 -23 l-4 24 -12 -28 c-7 -16 -12 -55 -12 -88 0 -67 -10 -75 -29
-22 l-13 36 -13 -31 c-22 -51 -79 -68 -113 -34 -16 16 -18 34 -17 131 1 99 3
115 20 127 25 19 44 18 81 -5 20 -12 36 -33 44 -58 19 -58 22 -59 42 -19 10
20 27 40 36 44 22 8 180 121 188 134 13 20 16 -2 5 -34z m-501 -29 c-27 -33
-51 -65 -51 -72 -1 -7 -5 4 -8 23 l-7 35 -18 -35 c-10 -19 -21 -62 -24 -97 -2
-35 -7 -63 -11 -63 -3 0 -14 7 -24 14 -16 13 -17 20 -8 73 6 33 23 75 39 97
29 42 100 86 139 86 22 0 20 -4 -27 -61z m-71 -269 c57 -35 165 -108 240 -162
150 -110 423 -329 417 -335 -2 -3 -40 16 -85 41 -44 25 -82 46 -84 46 -4 0
-248 131 -384 206 -35 19 -63 33 -63 30 0 -2 50 -39 111 -81 108 -75 129 -96
75 -76 -41 16 -31 4 29 -34 59 -38 69 -51 33 -40 -30 9 -21 1 80 -70 45 -32
82 -60 82 -61 0 -4 -421 204 -592 292 -122 63 -146 87 -208 215 -37 76 -39 84
-23 91 10 4 74 7 143 5 l126 -3 103 -64z m430 -12 c13 -47 15 -50 27 -33 13
17 14 16 14 -16 l1 -34 19 24 20 23 0 -46 c0 -29 4 -45 10 -41 14 9 12 -16 -5
-45 -14 -25 -14 -25 -21 18 -4 28 -10 39 -15 31 -5 -9 -10 -4 -15 16 -12 46
-22 2 -13 -54 4 -25 8 -57 8 -71 -1 -38 -46 64 -59 130 -10 53 -4 150 9 150 4
0 13 -23 20 -52z m-589 -313 c86 -45 76 -155 -15 -155 -46 0 -65 30 -35 60 11
11 27 20 35 20 20 0 19 16 -1 24 -30 11 -61 6 -88 -15 -57 -45 -16 -130 74
-150 58 -13 138 4 220 47 99 52 122 43 48 -21 -177 -151 -418 -106 -418 79 0
91 100 152 180 111z m1098 -96 c2 -19 -3 -28 -21 -36 -18 -8 -31 -29 -46 -74
-26 -77 -57 -123 -116 -172 -30 -26 -45 -46 -45 -62 0 -32 -31 -49 -56 -30
-15 11 -17 18 -8 32 6 10 20 19 30 21 13 2 30 26 52 76 20 44 56 99 93 140 32
37 59 75 59 86 0 34 12 51 34 48 14 -2 22 -11 24 -29z m34 -132 c6 -10 -5 -47
-36 -119 -25 -57 1 -48 49 17 39 53 70 69 81 41 3 -7 -9 -48 -27 -90 -18 -42
-29 -79 -25 -83 3 -4 29 19 57 50 83 93 111 71 55 -41 -20 -39 -32 -73 -27
-77 5 -3 28 16 50 41 31 36 42 43 47 31 9 -23 -23 -83 -64 -118 -33 -29 -40
-31 -88 -26 -29 3 -74 15 -100 26 -63 28 -67 19 -8 -18 58 -37 36 -41 -38 -6
-30 14 -71 25 -95 25 -30 0 -50 7 -70 24 l-28 24 28 26 c15 14 27 31 27 39 0
7 24 38 53 68 28 29 67 84 85 121 26 53 36 66 50 61 9 -4 20 -11 24 -16z
m-958 -141 c50 -25 104 -56 120 -69 l29 -23 -128 -162 -127 -162 -31 16 c-18
9 -59 36 -93 59 -132 94 -163 206 -87 317 63 92 166 100 317 24z m214 -32 l62
-35 -71 -92 c-39 -51 -119 -154 -178 -230 -81 -105 -110 -137 -124 -133 -40
10 -172 94 -227 144 -64 57 -105 129 -116 200 -9 55 21 172 43 172 11 0 13 -6
8 -22 -14 -45 -17 -134 -6 -175 22 -81 107 -166 234 -234 43 -23 61 -28 71
-20 15 13 279 358 284 371 2 5 -16 30 -40 56 -48 53 -39 53 60 -2z m213 -129
c-91 -122 -367 -465 -374 -465 -6 0 -32 14 -59 31 -48 31 -48 31 -31 54 10 13
97 123 193 244 l174 219 52 -36 c31 -21 49 -41 45 -47z m197 -250 c64 -47 83
-85 67 -137 -11 -35 -62 -107 -114 -161 -42 -44 -43 -47 -18 -38 16 6 50 25
75 42 l47 32 -50 -52 c-27 -28 -57 -54 -67 -57 -19 -6 -138 43 -138 57 0 5
-27 27 -60 49 -33 22 -67 52 -77 66 -15 23 -15 28 -1 58 20 41 116 146 134
146 17 0 17 0 -1 -43 -8 -20 -15 -40 -15 -44 0 -3 30 23 67 60 36 37 72 67 78
67 7 0 40 -20 73 -45z"/>
<path d="M2480 2579 c-14 -32 -43 -49 -86 -49 -31 0 -30 -6 6 -37 29 -24 30
-28 24 -75 l-7 -49 38 22 c39 23 38 23 109 -6 17 -7 18 -4 11 34 -6 39 -4 46
26 77 l33 34 -26 0 c-44 0 -74 17 -88 49 -7 17 -16 31 -20 31 -4 0 -13 -14
-20 -31z"/>
<path d="M3251 1512 c-19 -9 -44 -30 -55 -45 -20 -27 -21 -43 -24 -388 l-3
-359 40 0 40 0 3 83 3 82 58 3 57 3 0 -86 0 -85 40 0 40 0 0 358 c0 340 -1
359 -20 390 -35 58 -115 77 -179 44z m107 -74 c9 -9 12 -77 12 -245 l0 -233
-60 0 -60 0 0 223 c0 251 4 267 64 267 17 0 37 -5 44 -12z"/>
<path d="M3622 1515 c-60 -26 -62 -43 -62 -440 l0 -355 40 0 40 0 2 356 c3
327 4 358 21 368 12 8 22 8 35 0 16 -10 17 -41 20 -368 l2 -356 40 0 40 0 0
349 c0 192 3 356 6 365 9 22 51 20 64 -3 6 -13 10 -146 10 -365 l0 -346 40 0
40 0 0 350 c0 394 -3 415 -65 444 -41 20 -72 20 -108 1 -25 -13 -32 -13 -57 0
-36 19 -65 18 -108 0z"/>
<path d="M2050 1119 l0 -400 38 3 37 3 3 83 3 83 57 -3 57 -3 3 -82 3 -83 39
0 40 0 0 400 0 400 -40 0 -40 0 0 -280 0 -280 -60 0 -60 0 0 280 0 280 -40 0
-40 0 0 -401z"/>
<path d="M2440 1120 l0 -400 140 0 140 0 0 40 0 40 -100 0 -100 0 0 200 0 200
70 0 70 0 0 35 0 35 -70 0 -70 0 0 90 0 90 90 0 90 0 0 35 0 35 -130 0 -130 0
0 -400z"/>
<path d="M2953 1500 c-61 -37 -63 -49 -63 -367 0 -336 1 -333 -81 -333 l-49 0
0 -41 0 -41 60 4 c69 5 106 27 132 79 16 30 18 68 18 326 0 290 0 292 22 307
12 9 39 16 60 16 37 0 38 1 38 35 l0 35 -52 0 c-35 0 -64 -7 -85 -20z"/>
</g>
</svg>
