<svg width="25" height="10" viewBox="0 0 17 9" fill="none" xmlns="http://www.w3.org/2000/svg">
<path d="M0.84 9V0.36H4.332C4.416 0.36 4.52 0.364 4.644 0.372C4.768 0.376 4.886 0.388 4.998 0.408C5.478 0.483999 5.878 0.648 6.198 0.9C6.522 1.152 6.764 1.47 6.924 1.854C7.084 2.238 7.164 2.662 7.164 3.126C7.164 3.594 7.084 4.02 6.924 4.404C6.764 4.788 6.522 5.106 6.198 5.358C5.878 5.61 5.478 5.774 4.998 5.85C4.886 5.866 4.766 5.878 4.638 5.886C4.514 5.894 4.412 5.898 4.332 5.898H2.094V9H0.84ZM2.094 4.71H4.284C4.364 4.71 4.452 4.706 4.548 4.698C4.648 4.69 4.742 4.676 4.83 4.656C5.086 4.596 5.292 4.486 5.448 4.326C5.604 4.162 5.716 3.974 5.784 3.762C5.852 3.55 5.886 3.338 5.886 3.126C5.886 2.914 5.852 2.704 5.784 2.496C5.716 2.284 5.604 2.098 5.448 1.938C5.292 1.774 5.086 1.662 4.83 1.602C4.742 1.578 4.648 1.562 4.548 1.554C4.452 1.546 4.364 1.542 4.284 1.542H2.094V4.71ZM8.36344 9V0.36H9.49744L12.6294 6.858L15.7434 0.36H16.8894V8.994H15.7014V3.084L12.9114 9H12.3414L9.54544 3.084V9H8.36344Z" fill="#4C4C4C"/>
</svg>
