<svg width="40" height="40" viewBox="0 0 40 40" fill="none" xmlns="http://www.w3.org/2000/svg">
<rect x="0.5" y="0.5" width="39" height="39" rx="3.5" fill="#FCFCFC" stroke="#E6E6E6"/>
<path d="M16.258 25.162C15.83 25.162 15.428 25.082 15.052 24.922C14.676 24.758 14.35 24.526 14.074 24.226C13.802 23.926 13.604 23.572 13.48 23.164L14.692 22.828C14.808 23.2 15.01 23.486 15.298 23.686C15.586 23.882 15.906 23.978 16.258 23.974C16.574 23.97 16.852 23.896 17.092 23.752C17.332 23.608 17.52 23.414 17.656 23.17C17.792 22.922 17.86 22.638 17.86 22.318C17.86 21.838 17.71 21.442 17.41 21.13C17.114 20.818 16.726 20.662 16.246 20.662C16.11 20.662 15.97 20.682 15.826 20.722C15.686 20.762 15.554 20.814 15.43 20.878L14.842 19.888L17.89 17.194L18.022 17.554H13.822V16.36H19.018V17.554L16.486 19.99L16.474 19.582C17.018 19.582 17.49 19.704 17.89 19.948C18.29 20.188 18.598 20.516 18.814 20.932C19.034 21.344 19.144 21.806 19.144 22.318C19.144 22.87 19.014 23.36 18.754 23.788C18.498 24.216 18.152 24.552 17.716 24.796C17.284 25.04 16.798 25.162 16.258 25.162ZM24.3672 25V23.494H20.4672V22.306L23.2752 16.36H24.7092L21.9012 22.306H24.3672V19.966H25.6392V22.306H26.4972V23.494H25.6392V25H24.3672Z" fill="#4C4C4C"/>
</svg>
