<svg width="40" height="40" viewBox="0 0 40 40" fill="none" xmlns="http://www.w3.org/2000/svg">
<rect x="0.5" y="0.5" width="39" height="39" rx="3.5" fill="#FCFCFC" stroke="#E6E6E6"/>
<path d="M16.346 25V17.74L14.72 18.73V17.332L16.346 16.36H17.624V25H16.346ZM22.9145 25.18C22.3265 25.18 21.8065 25.052 21.3545 24.796C20.9025 24.536 20.5465 24.18 20.2865 23.728C20.0305 23.276 19.9025 22.756 19.9025 22.168V19.192C19.9025 18.604 20.0305 18.084 20.2865 17.632C20.5465 17.18 20.9025 16.826 21.3545 16.57C21.8065 16.31 22.3265 16.18 22.9145 16.18C23.5025 16.18 24.0225 16.31 24.4745 16.57C24.9265 16.826 25.2805 17.18 25.5365 17.632C25.7965 18.084 25.9265 18.604 25.9265 19.192V22.168C25.9265 22.756 25.7965 23.276 25.5365 23.728C25.2805 24.18 24.9265 24.536 24.4745 24.796C24.0225 25.052 23.5025 25.18 22.9145 25.18ZM22.9145 23.98C23.2345 23.98 23.5245 23.904 23.7845 23.752C24.0485 23.596 24.2585 23.388 24.4145 23.128C24.5705 22.864 24.6485 22.57 24.6485 22.246V19.102C24.6485 18.782 24.5705 18.492 24.4145 18.232C24.2585 17.968 24.0485 17.76 23.7845 17.608C23.5245 17.452 23.2345 17.374 22.9145 17.374C22.5945 17.374 22.3025 17.452 22.0385 17.608C21.7785 17.76 21.5705 17.968 21.4145 18.232C21.2585 18.492 21.1805 18.782 21.1805 19.102V22.246C21.1805 22.57 21.2585 22.864 21.4145 23.128C21.5705 23.388 21.7785 23.596 22.0385 23.752C22.3025 23.904 22.5945 23.98 22.9145 23.98Z" fill="#4C4C4C"/>
</svg>
